HIERARCHY
ROOT Hips
{
	OFFSET 0.000000 0.000000 0.000000
	CHANNELS 6 Xposition Yposition Zposition Zrotation Yrotation Xrotation 
	JOINT LowerBack
	{
		OFFSET 0.000000 0.000000 0.000000
		CHANNELS 3 Zrotation Yrotation Xrotation
		JOINT Spine
		{
			OFFSET 0.028270 2.035590 -0.193380
			CHANNELS 3 Zrotation Yrotation Xrotation
			JOINT Spine1
			{
				OFFSET 0.056720 2.048850 -0.042750
				CHANNELS 3 Zrotation Yrotation Xrotation
				JOINT Neck
				{
					OFFSET 0.000000 0.000000 0.000000
					CHANNELS 3 Zrotation Yrotation Xrotation
					JOINT Neck1
					{
						OFFSET -0.054170 1.746240 0.172020
						CHANNELS 3 Zrotation Yrotation Xrotation
						JOINT Head
						{
							OFFSET 0.104070 1.761360 -0.123970
							CHANNELS 3 Zrotation Yrotation Xrotation
							End Site
							{
								OFFSET 0.000000 0.000000 0.000000
							}
						}
					}
				}
				JOINT LeftShoulder
				{
					OFFSET 0.000000 0.000000 0.000000
					CHANNELS 3 Zrotation Yrotation Xrotation
					JOINT LeftArm
					{
						OFFSET 3.362410 1.200890 -0.311210
						CHANNELS 3 Zrotation Yrotation Xrotation
						JOINT LeftForeArm
						{
							OFFSET 4.983000 -0.000000 -0.000000
							CHANNELS 3 Zrotation Yrotation Xrotation
							JOINT LeftHand
							{
								OFFSET 3.483560 -0.000000 -0.000000
								CHANNELS 3 Zrotation Yrotation Xrotation
								JOINT LeftFingerBase
								{
									OFFSET 0.000000 0.000000 0.000000
									CHANNELS 3 Zrotation Yrotation Xrotation
									JOINT LeftHandIndex1
									{
										OFFSET 0.715260 -0.000000 -0.000000
										CHANNELS 3 Zrotation Yrotation Xrotation
										End Site
										{
											OFFSET 0.000000 0.000000 0.000000
										}
									}
								}
								JOINT LThumb
								{
									OFFSET 0.000000 0.000000 0.000000
									CHANNELS 3 Zrotation Yrotation Xrotation
									End Site
									{
										OFFSET 0.000000 0.000000 0.000000
									}
								}
							}
						}
					}
				}
				JOINT RightShoulder
				{
					OFFSET 0.000000 0.000000 0.000000
					CHANNELS 3 Zrotation Yrotation Xrotation
					JOINT RightArm
					{
						OFFSET -3.136600 1.374050 -0.404650
						CHANNELS 3 Zrotation Yrotation Xrotation
						JOINT RightForeArm
						{
							OFFSET -5.241900 -0.000000 -0.000000
							CHANNELS 3 Zrotation Yrotation Xrotation
							JOINT RightHand
							{
								OFFSET -3.444170 -0.000000 -0.000000
								CHANNELS 3 Zrotation Yrotation Xrotation
								JOINT RightFingerBase
								{
									OFFSET 0.000000 0.000000 0.000000
									CHANNELS 3 Zrotation Yrotation Xrotation
									JOINT RightHandIndex1
									{
										OFFSET -0.622530 -0.000000 -0.000000
										CHANNELS 3 Zrotation Yrotation Xrotation
										End Site
										{
											OFFSET 0.000000 0.000000 0.000000
										}
									}
								}
								JOINT RThumb
								{
									OFFSET 0.000000 0.000000 0.000000
									CHANNELS 3 Zrotation Yrotation Xrotation
									End Site
									{
										OFFSET 0.000000 0.000000 0.000000
									}
								}
							}
						}
					}
				}
			}
		}
	}
}
}
MOTION
Frames: 17
Frame Time: 0.008333
-1.126948 15.518016 -0.589901 -125.472901 80.873687 -99.689071 -1.212487 0.658528 11.034996 -0.855929 1.002981 -0.679961 -4.910925 1.066593 0.041494 8.201811 -9.168827 -7.922365 -1.059109 -0.046748 -0.492901 0.000000 0.000000 0.000000 2.246845 19.378264 2.312664 -76.291964 27.626020 13.459189 -0.371261 -81.368892 -0.002701 1.444667 0.356608 0.003262 -0.020941 0.146508 0.000000 0.000000 0.000000 0.000000 0.000000 0.000000 0.000000 1.568345 -2.514806 -1.121952 61.459786 16.582941 11.190582 179.788375 83.648743 179.956478 -6.540929 3.099009 -0.206696 0.131706 -0.457671 -0.000000 0.000000 0.000000 0.000000 0.000000 0.000000 0.000000 
-0.929206 15.454860 -0.616381 -124.321351 80.633403 -99.124003 -1.474348 0.632515 11.181220 -0.930127 0.984179 -0.684042 -5.005869 1.050559 -0.080927 8.294585 -9.018916 -7.925141 -1.090627 -0.048990 -0.493249 0.000000 0.000000 0.000000 2.030417 19.096565 2.323477 -76.051754 27.086216 13.229301 -0.372424 -81.431864 -0.003367 1.684080 0.435667 0.004891 -0.024832 0.148366 0.000000 0.000000 0.000000 0.000000 0.000000 0.000000 0.000000 1.699397 -2.300695 -1.058591 61.851721 16.093135 11.589059 179.786827 83.846183 179.959672 -6.096395 3.158552 -0.195803 0.121919 -0.456869 -0.000000 0.000000 0.000000 0.000000 0.000000 0.000000 0.000000 
-0.734157 15.393217 -0.642357 -123.420445 80.431685 -98.790870 -1.757806 0.608976 11.332600 -1.009581 0.967185 -0.688094 -5.104271 1.036120 -0.207160 8.382184 -8.858272 -7.923216 -1.130665 -0.051870 -0.493465 0.000000 0.000000 0.000000 1.798614 18.783221 2.334409 -75.726419 26.365468 13.094929 -0.376800 -81.411687 -0.004133 1.946637 0.562177 0.007723 -0.029380 0.149874 0.000000 0.000000 0.000000 0.000000 0.000000 0.000000 0.000000 1.868064 -2.079912 -0.987769 62.260257 15.570708 11.957915 179.787462 84.100059 179.962922 -5.641474 3.220750 -0.184112 0.111728 -0.455813 -0.000000 0.000000 0.000000 0.000000 0.000000 0.000000 0.000000 
-0.541814 15.334185 -0.667829 -122.831383 80.274735 -98.748670 -2.062869 0.583607 11.488695 -1.094598 0.947361 -0.695375 -5.208144 1.018468 -0.349713 8.460475 -8.684008 -7.903730 -1.181243 -0.055774 -0.489652 0.000000 0.000000 0.000000 1.504909 18.378504 2.341838 -75.298757 25.537806 12.984227 -0.382155 -81.378431 -0.004993 2.226255 0.733937 0.012157 -0.034373 0.151031 0.000000 0.000000 0.000000 0.000000 0.000000 0.000000 0.000000 2.077344 -1.853294 -0.903838 62.690349 15.015320 12.304614 179.790618 84.429329 179.966186 -5.184313 3.288733 -0.172221 0.101476 -0.454476 -0.000000 0.000000 0.000000 0.000000 0.000000 0.000000 0.000000 
-0.352420 15.278107 -0.693773 -122.516456 80.140539 -98.951431 -2.361318 0.560943 11.639656 -1.178507 0.928845 -0.703515 -5.314326 1.001717 -0.491356 8.522803 -8.513147 -7.876075 -1.239960 -0.060367 -0.484325 0.000000 0.000000 0.000000 1.187395 17.931778 2.346959 -74.794470 24.537634 12.945036 -0.391055 -81.262377 -0.005953 2.520249 0.951135 0.018594 -0.039995 0.151823 0.000000 0.000000 0.000000 0.000000 0.000000 0.000000 0.000000 2.317603 -1.640875 -0.813703 63.136493 14.440922 12.626734 179.797633 84.846760 179.969395 -4.734519 3.362943 -0.160231 0.091258 -0.452715 -0.000000 0.000000 0.000000 0.000000 0.000000 0.000000 0.000000 
-0.165920 15.225485 -0.720578 -122.470604 80.021940 -99.392604 -2.642332 0.539811 11.781974 -1.258528 0.910337 -0.711761 -5.421100 0.984605 -0.626816 8.564765 -8.351700 -7.841849 -1.305565 -0.065535 -0.477741 0.000000 0.000000 0.000000 0.849621 17.455295 2.349791 -74.225422 23.363841 12.967717 -0.403800 -81.061399 -0.007016 2.824212 1.210034 0.027232 -0.046253 0.152314 0.000000 0.000000 0.000000 0.000000 0.000000 0.000000 0.000000 2.582143 -1.451815 -0.719991 63.600598 13.858540 12.929981 179.809595 85.370986 179.972463 -4.304723 3.444591 -0.148540 0.081341 -0.450422 -0.000000 0.000000 0.000000 0.000000 0.000000 0.000000 0.000000 
0.017708 15.176582 -0.748863 -122.658526 79.905657 -100.035069 -2.888213 0.520587 11.910226 -1.330556 0.892109 -0.720862 -5.526930 0.967316 -0.754934 8.579793 -8.204051 -7.800192 -1.376636 -0.071206 -0.469287 0.000000 0.000000 0.000000 0.489226 16.943752 2.349867 -73.610889 22.040882 13.019152 -0.420084 -80.788027 -0.008171 3.128417 1.502948 0.038273 -0.052980 0.152614 0.000000 0.000000 0.000000 0.000000 0.000000 0.000000 0.000000 2.859203 -1.292139 -0.623531 64.084620 13.272621 13.218158 179.827368 86.018673 179.975306 -3.907615 3.533391 -0.137750 0.072027 -0.447484 -0.000000 0.000000 0.000000 0.000000 0.000000 0.000000 0.000000 
0.198532 15.131537 -0.778994 -123.038613 79.781397 -100.836615 -3.087725 0.502509 12.020331 -1.391521 0.873463 -0.729504 -5.628876 0.949271 -0.868108 8.564698 -8.075559 -7.756411 -1.450794 -0.077119 -0.460254 0.000000 0.000000 0.000000 0.121582 16.424444 2.348149 -72.976632 20.562292 13.092162 -0.440417 -80.433131 -0.009419 3.426695 1.821447 0.051615 -0.060142 0.152896 0.000000 0.000000 0.000000 0.000000 0.000000 0.000000 0.000000 3.137764 -1.168683 -0.528128 64.589982 12.694834 13.495790 179.851812 86.805946 179.977837 -3.556341 3.628667 -0.128159 0.063574 -0.443777 -0.000000 0.000000 0.000000 0.000000 0.000000 0.000000 0.000000 
0.376690 15.090422 -0.811318 -123.563673 79.639776 -101.749273 -3.231360 0.484657 12.107978 -1.438929 0.853585 -0.737947 -5.724653 0.929689 -0.964619 8.516701 -7.967337 -7.712249 -1.526079 -0.083115 -0.450845 0.000000 0.000000 0.000000 -0.246406 15.903514 2.344857 -72.349404 18.951418 13.156541 -0.464356 -80.010528 -0.010748 3.711127 2.154147 0.066858 -0.067559 0.153371 0.000000 0.000000 0.000000 0.000000 0.000000 0.000000 0.000000 3.406300 -1.082709 -0.434900 65.118036 12.129862 13.765443 179.883268 87.745020 179.979987 -3.262140 3.729009 -0.120165 0.056237 -0.439212 0.000000 0.000000 0.000000 0.000000 0.000000 0.000000 0.000000 
0.552301 15.053240 -0.845962 -124.191501 79.474404 -102.730097 -3.314807 0.465385 12.169788 -1.471430 0.830984 -0.746392 -5.812039 0.907146 -1.043462 8.435594 -7.878612 -7.669749 -1.600625 -0.089034 -0.441422 0.000000 0.000000 0.000000 -0.603481 15.387947 2.340261 -71.756207 17.233235 13.183980 -0.491245 -79.536556 -0.012148 3.974706 2.489281 0.083500 -0.075039 0.154274 0.000000 0.000000 0.000000 0.000000 0.000000 0.000000 0.000000 3.655424 -1.032869 -0.344443 65.669393 11.580948 14.027693 179.921678 88.844460 179.981708 -3.034012 3.833068 -0.114273 0.050214 -0.433735 -0.000000 0.000000 0.000000 0.000000 0.000000 0.000000 0.000000 
0.725467 15.019948 -0.882836 -124.891714 79.282470 -103.748787 -3.338942 0.442476 12.203607 -1.488895 0.803625 -0.755285 -5.889291 0.879669 -1.105551 8.323768 -7.806663 -7.630137 -1.672967 -0.094757 -0.432172 0.000000 0.000000 0.000000 -0.937025 14.879873 2.334312 -71.221759 15.439581 13.146787 -0.520002 -79.033629 -0.013604 4.212641 2.814194 0.100640 -0.082370 0.155851 0.000000 0.000000 0.000000 0.000000 0.000000 0.000000 0.000000 3.879015 -1.015207 -0.256213 66.243609 11.049168 14.280917 -0.033478 89.892140 -0.017016 -2.877134 3.938767 -0.110877 0.045625 -0.427323 -0.000000 0.000000 0.000000 0.000000 0.000000 0.000000 0.000000 
0.896325 14.990531 -0.921683 -125.649834 79.063699 -104.790240 -3.309168 0.413498 12.208365 -1.492285 0.769258 -0.765206 -5.955170 0.845056 -1.153174 8.185893 -7.747723 -7.593869 -1.741999 -0.100203 -0.423137 0.000000 0.000000 0.000000 -1.232542 14.377276 2.326615 -70.766972 13.605083 13.021772 -0.549156 -78.527827 -0.015099 4.420960 3.118004 0.117579 -0.089325 0.158324 0.000000 0.000000 0.000000 0.000000 0.000000 0.000000 0.000000 4.074022 -1.024250 -0.168723 66.838748 10.532248 14.520845 0.016903 88.467008 -0.016175 -2.793357 4.044773 -0.109979 0.042522 -0.420010 -0.000000 0.000000 0.000000 0.000000 0.000000 0.000000 0.000000 
1.064965 14.964947 -0.962134 -126.466949 78.819609 -105.855994 -3.234750 0.375935 12.184976 -1.483522 0.725552 -0.776436 -6.009159 0.801036 -1.188919 8.028964 -7.697254 -7.561300 -1.807174 -0.105330 -0.414431 0.000000 0.000000 0.000000 -1.474070 13.878972 2.316588 -70.406276 11.759170 12.796168 -0.577113 -78.044240 -0.016599 4.597744 3.391507 0.133413 -0.095716 0.161888 0.000000 0.000000 0.000000 0.000000 0.000000 0.000000 0.000000 4.241867 -1.053497 -0.080123 67.450549 10.026925 14.740885 0.071662 86.888457 -0.015727 -2.780330 4.149228 -0.111780 0.040854 -0.411853 -0.000000 0.000000 0.000000 0.000000 0.000000 0.000000 0.000000 
1.231564 14.943168 -1.003662 -127.359078 78.554482 -106.962811 -3.127285 0.327653 12.135470 -1.465237 0.670534 -0.790027 -6.051617 0.745583 -1.218837 7.860846 -7.649325 -7.529553 -1.868655 -0.110202 -0.405249 0.000000 0.000000 0.000000 -1.648923 13.366691 2.303072 -70.146634 9.946532 12.452886 -0.601468 -77.618607 -0.018079 4.741355 3.626247 0.147343 -0.101282 0.166691 0.000000 0.000000 0.000000 0.000000 0.000000 0.000000 0.000000 4.386719 -1.094909 0.013130 68.073986 9.524073 14.931817 0.129534 85.170542 -0.015621 -2.832852 4.250527 -0.116177 0.040525 -0.402957 -0.000000 0.000000 0.000000 0.000000 0.000000 0.000000 0.000000 
1.396212 14.925173 -1.045762 -128.347503 78.271215 -108.134090 -2.999099 0.266897 12.064060 -1.440222 0.602642 -0.805324 -6.083287 0.677234 -1.243996 7.690943 -7.601605 -7.499793 -1.926530 -0.114802 -0.396075 0.000000 0.000000 0.000000 -1.742284 12.846492 2.285155 -69.987281 8.176439 12.006716 -0.620897 -77.266333 -0.019514 4.852059 3.819009 0.158970 -0.105951 0.172820 0.000000 0.000000 0.000000 0.000000 0.000000 0.000000 0.000000 4.515877 -1.144333 0.112233 68.701682 9.019339 15.084450 0.189321 83.332980 -0.015752 -2.942709 4.347064 -0.122974 0.041350 -0.393427 -0.000000 0.000000 0.000000 0.000000 0.000000 0.000000 0.000000 
1.559049 14.910906 -1.088003 -129.453172 77.971576 -109.393333 -2.861314 0.192816 11.975829 -1.411232 0.521212 -0.822076 -6.105855 0.595347 -1.267274 7.528081 -7.551109 -7.470883 -1.981468 -0.119193 -0.386730 0.000000 0.000000 0.000000 -1.745353 12.314547 2.261650 -69.919668 6.463201 11.472354 -0.633931 -77.006004 -0.020873 4.929552 3.968119 0.167791 -0.109627 0.180303 0.000000 0.000000 0.000000 0.000000 0.000000 0.000000 0.000000 4.638179 -1.197056 0.218954 69.325044 8.504394 15.187948 0.249888 81.400305 -0.016074 -3.100213 4.437015 -0.131769 0.043122 -0.383386 -0.000000 0.000000 0.000000 0.000000 0.000000 0.000000 0.000000 
1.720184 14.900328 -1.129873 -130.696342 77.658110 -110.764976 -2.723380 0.105669 11.876671 -1.380743 0.426685 -0.840070 -6.121265 0.500342 -1.291867 7.379670 -7.496574 -7.440756 -2.034303 -0.123469 -0.376739 0.000000 0.000000 0.000000 -1.654146 11.762476 2.231165 -69.929381 4.820816 10.867103 -0.639260 -76.854255 -0.022125 4.974115 4.073244 0.173607 -0.112223 0.189109 0.000000 0.000000 0.000000 0.000000 0.000000 0.000000 0.000000 4.762125 -1.250289 0.334935 69.935346 7.969707 15.232835 0.310344 79.400411 -0.016515 -3.296459 4.518941 -0.142164 0.045648 -0.372974 0.000000 0.000000 0.000000 0.000000 0.000000 0.000000 0.000000 
